<?xml version="1.0" encoding="UTF-8"?><svg id="a" xmlns="http://www.w3.org/2000/svg" viewBox="0 0 418.4946 182.6172"><defs><style>.h,.i,.j{fill:#dc8e40;}.i{opacity:.7;}.j{opacity:.4;}</style></defs><g id="b"/><g id="c"><g><path class="h" d="M197.6597,132.4414l-2.3047,8.3047h-7.5361l9.8408-32.355h9.6006l10.0811,32.355h-7.9209l-2.4961-8.3047h-9.2646Zm8.209-5.4727l-2.0166-6.8643c-.5762-1.9204-1.1523-4.3203-1.6318-6.2407h-.0967c-.4795,1.9204-.96,4.3682-1.4873,6.2407l-1.9209,6.8643h7.1533Z"/><path class="h" d="M235.9165,140.1221c-1.2959,.624-3.7441,1.104-6.5283,1.104-7.585,0-12.4336-4.6562-12.4336-12.001,0-6.8647,4.7041-12.481,13.4414-12.481,1.9199,0,4.0322,.3359,5.5684,.9121l-1.1523,5.4243c-.8643-.3843-2.1602-.7202-4.0801-.7202-3.8408,0-6.3369,2.7363-6.2881,6.5767,0,4.2725,2.8799,6.5767,6.4316,6.5767,1.7285,0,3.0723-.2881,4.1768-.7681l.8643,5.3765Z"/><path class="h" d="M257.2759,135.0815c0,2.2085,.0957,4.3687,.3838,5.6646h-6.5762l-.4316-2.3521h-.1445c-1.5361,1.8721-3.9365,2.8799-6.7207,2.8799-4.752,0-7.584-3.4561-7.584-7.2002,0-6.0967,5.4717-8.9771,13.7764-8.9771v-.2881c0-1.2959-.6719-3.0723-4.2725-3.0723-2.3994,0-4.9443,.8164-6.4805,1.7764l-1.3438-4.7046c1.6318-.9121,4.8486-2.1123,9.1211-2.1123,7.8242,0,10.2725,4.6084,10.2725,10.1772v8.2085Zm-7.0566-5.4243c-3.8398,0-6.8164,.9121-6.8164,3.6963,0,1.8721,1.248,2.7842,2.8799,2.7842,1.7764,0,3.3125-1.2002,3.793-2.6885,.0957-.3838,.1436-.8159,.1436-1.248v-2.5439Z"/><path class="h" d="M283.436,106.6631v27.0742c0,2.6406,.0957,5.4248,.1914,7.0088h-6.4805l-.2881-3.4082h-.1436c-1.4404,2.5923-4.3203,3.936-7.3447,3.936-5.5684,0-10.0332-4.7524-10.0332-12.0488-.0479-7.9209,4.8965-12.5293,10.5127-12.5293,2.9287,0,5.1367,1.0562,6.1934,2.6406h.0957v-12.6733h7.2969Zm-7.2969,20.5459c0-.3843,0-.9121-.0957-1.3442-.4326-1.9199-2.0166-3.5522-4.2725-3.5522-3.3604,0-5.041,2.9761-5.041,6.6724,0,3.9844,1.9688,6.481,4.9922,6.481,2.1123,0,3.8408-1.4404,4.2725-3.5044,.0967-.5283,.1445-1.104,.1445-1.6802v-3.0723Z"/><path class="h" d="M292.5063,131.3374c.1914,3.0239,3.2158,4.4644,6.624,4.4644,2.4971,0,4.5127-.3359,6.4805-1.0083l.9609,4.9443c-2.4004,1.0083-5.3291,1.4883-8.4971,1.4883-7.9688,0-12.5293-4.6084-12.5293-11.9531,0-5.9521,3.6963-12.5288,11.8574-12.5288,7.584,0,10.4648,5.9043,10.4648,11.7129,0,1.248-.1445,2.3521-.2402,2.8804h-15.1211Zm8.5928-4.9927c0-1.7759-.7686-4.7524-4.1289-4.7524-3.0723,0-4.3203,2.8325-4.5117,4.7524h8.6406Z"/><path class="h" d="M309.8345,124.7607c0-2.9282-.0967-5.3765-.1924-7.4888h6.1924l.2881,3.1685h.1436c1.0088-1.5361,3.1211-3.7446,7.1055-3.7446,3.0723,0,5.4238,1.5845,6.4326,4.0327h.0957c.9121-1.248,1.9199-2.2085,3.0723-2.8804,1.2959-.7202,2.7363-1.1523,4.4639-1.1523,4.5127,0,7.9209,3.1685,7.9209,10.2251v13.8252h-7.1045v-12.769c0-3.4082-1.1045-5.3765-3.4561-5.3765-1.7285,0-2.8809,1.1519-3.4082,2.5439-.1445,.5283-.2402,1.2485-.2402,1.8726v13.729h-7.1045v-13.2012c0-2.9282-1.0566-4.9443-3.4082-4.9443-1.8721,0-2.9766,1.4399-3.4082,2.5923-.2402,.5757-.2881,1.248-.2881,1.8721v13.6812h-7.1045v-15.9854Z"/><path class="h" d="M353.2729,117.272l3.5049,11.5688c.3838,1.3442,.8643,3.1206,1.1523,4.3687h.1914c.2881-1.2964,.6719-3.0244,1.0078-4.4165l2.9287-11.521h7.7764l-5.4727,15.4575c-3.3594,9.3608-5.6162,13.0571-8.2559,15.4092-2.4971,2.208-5.1846,3.0244-7.0088,3.2163l-1.584-6.1445c.9121-.1919,2.0635-.624,3.168-1.248,1.1045-.5762,2.3525-1.7764,3.0244-2.9282,.2402-.3843,.3838-.7681,.3838-1.0562s-.0479-.624-.2881-1.2002l-8.6406-21.5059h8.1123Z"/></g><g><path d="M208.4604,85.7637h-12.1934v9.5044h13.6338v4.8486h-19.5381v-32.355h18.8174v4.8486h-12.9131v8.3525h12.1934v4.8008Z"/><path d="M212.4429,83.6992c0-2.688-.0479-4.9443-.1914-6.9604h5.1846l.2871,3.5044h.1445c1.0078-1.8242,3.5527-4.0327,7.4404-4.0327,4.0801,0,8.3047,2.6406,8.3047,10.0332v13.873h-5.9043v-13.2012c0-3.3604-1.248-5.9043-4.4648-5.9043-2.3516,0-3.9834,1.6802-4.6084,3.4561-.1914,.5283-.2393,1.248-.2393,1.9204v13.729h-5.9531v-16.4175Z"/><path d="M258.8608,76.7388c-.0957,1.584-.1924,3.5044-.1924,6.7207v13.249c0,4.8965-1.0078,8.4009-3.4561,10.6089-2.4482,2.1602-5.8086,2.832-9.0244,2.832-2.9766,0-6.1445-.624-8.1611-1.8721l1.2959-4.4644c1.4883,.8643,3.9844,1.7764,6.8164,1.7764,3.8408,0,6.7207-2.0161,6.7207-7.0566v-2.0161h-.0957c-1.3438,2.064-3.7441,3.4561-6.8164,3.4561-5.8086,0-9.9375-4.8003-9.9375-11.4248,0-7.6807,4.9932-12.3374,10.6094-12.3374,3.5527,0,5.6641,1.7285,6.7686,3.6484h.0957l.2402-3.1201h5.1367Zm-6.0967,9.3608c0-.5283-.0479-1.104-.1924-1.5845-.624-2.1602-2.3037-3.792-4.7998-3.792-3.3125,0-5.7607,2.8804-5.7607,7.6323,0,3.9844,2.0166,7.2007,5.7129,7.2007,2.208,0,4.1279-1.4399,4.7998-3.5522,.1445-.624,.2402-1.4399,.2402-2.1123v-3.792Z"/><path d="M268.6987,70.21c0,1.7764-1.2959,3.1685-3.3604,3.1685-1.9688,0-3.2646-1.3921-3.2646-3.1685,0-1.8242,1.3447-3.2163,3.3125-3.2163,2.0166,0,3.2646,1.3921,3.3125,3.2163Zm-6.2891,29.9067v-23.3779h5.9531v23.3779h-5.9531Z"/><path d="M272.2983,83.6992c0-2.688-.0479-4.9443-.1914-6.9604h5.1846l.2871,3.5044h.1445c1.0078-1.8242,3.5527-4.0327,7.4404-4.0327,4.0801,0,8.3047,2.6406,8.3047,10.0332v13.873h-5.9043v-13.2012c0-3.3604-1.248-5.9043-4.4648-5.9043-2.3516,0-3.9834,1.6802-4.6084,3.4561-.1914,.5283-.2393,1.248-.2393,1.9204v13.729h-5.9531v-16.4175Z"/><path d="M301.5308,90.084c.1436,4.2241,3.4561,6.0483,7.2002,6.0483,2.7363,0,4.7051-.3838,6.4805-1.0562l.8643,4.0806c-2.0156,.8159-4.7998,1.4399-8.1602,1.4399-7.585,0-12.0498-4.6562-12.0498-11.8091,0-6.4805,3.9365-12.5771,11.4258-12.5771,7.584,0,10.0801,6.2407,10.0801,11.377,0,1.1045-.0957,1.9683-.1914,2.4966h-15.6494Zm10.2725-4.1284c.0488-2.1602-.9121-5.7124-4.8477-5.7124-3.6484,0-5.1846,3.312-5.4248,5.7124h10.2725Z"/><path d="M323.8979,90.084c.1436,4.2241,3.4561,6.0483,7.2002,6.0483,2.7363,0,4.7051-.3838,6.4805-1.0562l.8643,4.0806c-2.0156,.8159-4.7998,1.4399-8.1602,1.4399-7.585,0-12.0498-4.6562-12.0498-11.8091,0-6.4805,3.9365-12.5771,11.4258-12.5771,7.584,0,10.0801,6.2407,10.0801,11.377,0,1.1045-.0957,1.9683-.1914,2.4966h-15.6494Zm10.2725-4.1284c.0488-2.1602-.9121-5.7124-4.8477-5.7124-3.6484,0-5.1846,3.312-5.4248,5.7124h10.2725Z"/><path d="M342.0884,84.2754c0-3.1685-.0479-5.4243-.1914-7.5366h5.1357l.1924,4.4644h.1924c1.1514-3.3125,3.8877-4.9927,6.3838-4.9927,.5762,0,.9121,.0483,1.3926,.144v5.5688c-.4805-.0962-1.0078-.1924-1.7285-.1924-2.832,0-4.752,1.8242-5.2803,4.4644-.0957,.5283-.1914,1.1523-.1914,1.8242v12.0972h-5.9053v-15.8413Z"/><path d="M363.0649,70.21c0,1.7764-1.2959,3.1685-3.3604,3.1685-1.9688,0-3.2646-1.3921-3.2646-3.1685,0-1.8242,1.3447-3.2163,3.3125-3.2163,2.0166,0,3.2646,1.3921,3.3125,3.2163Zm-6.2891,29.9067v-23.3779h5.9531v23.3779h-5.9531Z"/><path d="M366.6636,83.6992c0-2.688-.0479-4.9443-.1914-6.9604h5.1846l.2871,3.5044h.1445c1.0078-1.8242,3.5527-4.0327,7.4404-4.0327,4.0801,0,8.3047,2.6406,8.3047,10.0332v13.873h-5.9043v-13.2012c0-3.3604-1.248-5.9043-4.4648-5.9043-2.3516,0-3.9834,1.6802-4.6084,3.4561-.1914,.5283-.2393,1.248-.2393,1.9204v13.729h-5.9531v-16.4175Z"/><path d="M413.0815,76.7388c-.0957,1.584-.1924,3.5044-.1924,6.7207v13.249c0,4.8965-1.0078,8.4009-3.4561,10.6089-2.4482,2.1602-5.8086,2.832-9.0244,2.832-2.9766,0-6.1445-.624-8.1611-1.8721l1.2959-4.4644c1.4883,.8643,3.9844,1.7764,6.8164,1.7764,3.8408,0,6.7207-2.0161,6.7207-7.0566v-2.0161h-.0957c-1.3438,2.064-3.7441,3.4561-6.8164,3.4561-5.8086,0-9.9375-4.8003-9.9375-11.4248,0-7.6807,4.9932-12.3374,10.6094-12.3374,3.5527,0,5.6641,1.7285,6.7686,3.6484h.0957l.2402-3.1201h5.1367Zm-6.0967,9.3608c0-.5283-.0479-1.104-.1924-1.5845-.624-2.1602-2.3037-3.792-4.7998-3.792-3.3125,0-5.7607,2.8804-5.7607,7.6323,0,3.9844,2.0166,7.2007,5.7129,7.2007,2.208,0,4.1279-1.4399,4.7998-3.5522,.1445-.624,.2402-1.4399,.2402-2.1123v-3.792Z"/></g><g><path d="M190.2192,53.25c1.9199,1.104,4.7998,2.0645,7.8242,2.0645,3.792,0,5.9043-1.7764,5.9043-4.4165,0-2.4482-1.6318-3.8882-5.7598-5.3765-5.3291-1.9204-8.7373-4.7524-8.7373-9.4087,0-5.2808,4.417-9.313,11.4248-9.313,3.5049,0,6.0967,.7681,7.7773,1.6323l-1.4404,4.7524c-1.1523-.6245-3.4082-1.5361-6.4326-1.5361-3.7441,0-5.377,2.0161-5.377,3.8882,0,2.4961,1.873,3.6484,6.1934,5.3286,5.6162,2.1118,8.3525,4.9443,8.3525,9.6006,0,5.1846-3.9365,9.6968-12.2891,9.6968-3.4082,0-6.9609-.96-8.7373-2.0161l1.2969-4.8965Z"/><path d="M235.1489,47.7773c0,8.5928-6.0488,12.4331-12.001,12.4331-6.625,0-11.7139-4.5601-11.7139-12.0488,0-7.6807,5.041-12.3853,12.0977-12.3853,6.9609,0,11.6172,4.8965,11.6172,12.001Zm-17.6182,.2402c0,4.5122,2.208,7.9209,5.8086,7.9209,3.3604,0,5.7129-3.3125,5.7129-8.0171,0-3.6479-1.6318-7.8247-5.665-7.8247-4.1758,0-5.8564,4.0327-5.8564,7.9209Z"/><path d="M238.2661,59.6826v-18.9614h-3.168v-4.4165h3.168v-1.0083c0-3.0239,.8164-6.0483,2.833-7.9688,1.7275-1.6318,4.0801-2.2559,6.0967-2.2559,1.584,0,2.832,.2397,3.792,.5757l-.4326,4.5605c-.624-.2397-1.4395-.4321-2.4961-.4321-2.9277,0-3.9355,2.4482-3.9355,5.3286v1.2002h5.1357v4.4165h-5.0879v18.9614h-5.9053Z"/><path d="M257.897,29.6318v6.6729h5.6172v4.4165h-5.6172v10.3208c0,2.832,.7686,4.3203,3.0244,4.3203,1.0078,0,1.7764-.144,2.3047-.2881l.0957,4.5122c-.8643,.3364-2.4004,.5762-4.2725,.5762-2.1602,0-3.9844-.7202-5.0879-1.9199-1.249-1.3442-1.8242-3.4565-1.8242-6.5288v-10.9927h-3.3604v-4.4165h3.3604v-5.2808l5.7598-1.3921Z"/><path d="M269.4644,36.3047l2.4482,10.6089c.5283,2.4961,1.0557,5.0405,1.4883,7.5845h.0957c.4805-2.5439,1.248-5.1362,1.9199-7.5366l3.0244-10.6567h4.8008l2.9277,10.3687c.7207,2.7363,1.3447,5.2808,1.8721,7.8247h.0967c.3838-2.5439,.9121-5.0884,1.5361-7.8247l2.5918-10.3687h5.8086l-7.3447,23.3779h-5.4727l-2.7842-9.5049c-.7197-2.4482-1.248-4.6562-1.7764-7.4888h-.0957c-.4795,2.8804-1.1035,5.1846-1.7764,7.4888l-2.9756,9.5049h-5.5205l-6.9131-23.3779h6.0488Z"/><path d="M312.3296,59.6826l-.3838-2.5923h-.1445c-1.4395,1.8242-3.8877,3.1201-6.9121,3.1201-4.7041,0-7.3447-3.4082-7.3447-6.9604,0-5.9043,5.2324-8.8809,13.873-8.8325v-.3843c0-1.5361-.624-4.0801-4.752-4.0801-2.3047,0-4.7051,.7197-6.2891,1.728l-1.1523-3.8403c1.7285-1.0562,4.7529-2.0645,8.4492-2.0645,7.4883,0,9.6484,4.7524,9.6484,9.8408v8.4487c0,2.1123,.0967,4.1768,.3359,5.6167h-5.3281Zm-.7676-11.4248c-4.1768-.0962-8.1611,.8159-8.1611,4.3682,0,2.3042,1.4883,3.3604,3.3604,3.3604,2.3525,0,4.0801-1.5361,4.6084-3.2163,.1436-.4321,.1924-.9121,.1924-1.2959v-3.2163Z"/><path d="M321.1597,43.8413c0-3.1685-.0479-5.4243-.1914-7.5366h5.1357l.1924,4.4644h.1924c1.1514-3.3125,3.8877-4.9927,6.3838-4.9927,.5762,0,.9121,.0483,1.3926,.144v5.5688c-.4805-.0962-1.0078-.1924-1.7285-.1924-2.832,0-4.752,1.8242-5.2803,4.4644-.0957,.5283-.1914,1.1523-.1914,1.8242v12.0972h-5.9053v-15.8413Z"/><path d="M339.5923,49.6499c.1436,4.2241,3.4561,6.0483,7.2002,6.0483,2.7363,0,4.7051-.3838,6.4805-1.0562l.8643,4.0806c-2.0156,.8159-4.7998,1.4399-8.1602,1.4399-7.585,0-12.0498-4.6562-12.0498-11.8091,0-6.4805,3.9365-12.5771,11.4258-12.5771,7.584,0,10.0801,6.2407,10.0801,11.377,0,1.1045-.0957,1.9683-.1914,2.4966h-15.6494Zm10.2725-4.1284c.0479-2.1602-.9121-5.7124-4.8477-5.7124-3.6484,0-5.1846,3.312-5.4248,5.7124h10.2725Z"/></g></g><g id="d"><path id="e" class="i" d="M105.7142,109.7047l54.2355-45.522c3.42-2.8705,1.3901-8.4463-3.0748-8.4463h-13.5446l-35.2894,29.6198c-2.2033,1.8493-4.9877,2.8629-7.8641,2.8629h-1.0407l-.0095,.012H29.3492l-18.8258,15.8013c-3.4199,2.8705-1.3901,8.4463,3.0748,8.4463H98.1287c2.7701-.0392,5.4436-1.0157,7.5855-2.7739Z"/><path id="f" class="j" d="M105.7142,137.9488l54.2355-45.522c3.42-2.8705,1.3901-8.4463-3.0748-8.4463h-13.5446l-35.2894,29.6198c-2.2033,1.8493-4.9877,2.8629-7.8641,2.8629h-1.0407l-.0095,.012H29.3492l-18.8258,15.8013c-3.4199,2.8705-1.3901,8.4463,3.0748,8.4463H98.1287c2.7701-.0392,5.4436-1.0157,7.5855-2.7739Z"/><path id="g" class="h" d="M156.8749,27.247H72.5169c-2.8764,0-5.6608,1.0137-7.864,2.8629L10.5234,75.543c-3.42,2.8705-1.3901,8.4463,3.0749,8.4463H97.9563c2.8764,0,5.6608-1.0137,7.864-2.8629l54.1295-45.4331c3.42-2.8705,1.3901-8.4463-3.0749-8.4463Z"/></g></svg>