<?xml version="1.0" encoding="utf-8"?>
<!-- Generator: Adobe Illustrator 27.8.1, SVG Export Plug-In . SVG Version: 6.00 Build 0)  -->
<svg version="1.1" id="Layer_1" xmlns="http://www.w3.org/2000/svg" xmlns:xlink="http://www.w3.org/1999/xlink" x="0px" y="0px"
	 viewBox="0 0 189.74 52.87" style="enable-background:new 0 0 189.74 52.87;" xml:space="preserve">
<style type="text/css">
	.st0{fill:#939598;}
	.st1{fill:#58595B;}
</style>
<g>
	<path d="M59.6,30.68h4.37l1.54,6.82c0.38,1.66,0.72,3.26,1.15,4.94h0.1c0.43-1.68,0.74-3.29,1.15-4.94l1.68-6.82h4.22l-4.7,15.6
		h-4.99L59.6,30.68z"/>
	<path d="M74.09,30.68h10.08v3.46h-5.95v2.45h5.09v3.46h-5.09v2.78h6.19v3.46H74.09V30.68z"/>
	<path d="M86.24,30.68h5.9c3.36,0,6.24,1.15,6.24,5.04c0,2.23-1.01,3.7-2.52,4.51l3.38,6.05h-4.61l-2.69-5.23h-1.58v5.23h-4.13
		V30.68z M91.85,37.79c1.63,0,2.5-0.72,2.5-2.06s-0.86-1.78-2.5-1.78h-1.49v3.84H91.85z"/>
	<path d="M98.86,44.32l2.16-2.69c1.1,0.91,2.59,1.39,3.84,1.39s1.78-0.41,1.78-1.1c0-0.74-0.79-0.98-2.11-1.51l-1.94-0.82
		c-1.68-0.67-3.14-2.09-3.14-4.34c0-2.66,2.4-4.85,5.81-4.85c1.87,0,3.77,0.67,5.18,1.97l-2.16,2.69c-1.06-0.72-2.11-1.1-3.02-1.1
		c-1.01,0-1.63,0.36-1.63,1.06c0,0.74,0.89,1.01,2.3,1.56l1.9,0.74c1.94,0.77,3.05,2.11,3.05,4.27c0,2.64-2.21,4.99-6.1,4.99
		C102.7,46.57,100.54,45.9,98.86,44.32z"/>
	<path d="M112.16,30.68h4.13v15.6h-4.13V30.68z"/>
	<path d="M117.87,38.41c0-5.14,2.93-8.02,7.25-8.02s7.25,2.9,7.25,8.02c0,5.14-2.93,8.16-7.25,8.16S117.87,43.55,117.87,38.41z
		 M128.14,38.41c0-2.83-1.15-4.46-3.02-4.46s-3.02,1.63-3.02,4.46c0,2.83,1.15,4.61,3.02,4.61S128.14,41.25,128.14,38.41z"/>
	<path d="M133.95,30.68h4.22l3.46,6.96c0.53,1.06,1.01,2.3,1.49,3.5h0.1c-0.19-1.68-0.53-4.03-0.53-5.95v-4.51h3.94v15.6h-4.22
		l-3.46-6.96c-0.53-1.06-1.01-2.3-1.49-3.5h-0.1c0.19,1.78,0.53,4.03,0.53,5.95v4.51h-3.94V30.68z"/>
	<path d="M148.88,30.68H153v15.6h-4.13V30.68z"/>
	<path d="M155.26,30.68h4.22l3.46,6.96c0.53,1.06,1.01,2.3,1.49,3.5h0.1c-0.19-1.68-0.53-4.03-0.53-5.95v-4.51h3.94v15.6h-4.22
		l-3.46-6.96c-0.53-1.06-1.01-2.3-1.49-3.5h-0.1c0.19,1.78,0.53,4.03,0.53,5.95v4.51h-3.94V30.68z"/>
	<path d="M169.52,38.61c0-5.23,3.6-8.21,7.78-8.21c2.3,0,3.98,0.91,5.09,2.06l-2.16,2.5c-0.77-0.67-1.54-1.01-2.78-1.01
		c-2.11,0-3.7,1.68-3.7,4.51c0,2.93,1.3,4.56,4.08,4.56c0.43,0,0.91-0.1,1.2-0.29v-2.16h-2.3v-3.36h5.95v7.44
		c-1.1,1.06-3.07,1.92-5.28,1.92C173.02,46.57,169.52,43.93,169.52,38.61z"/>
</g>
<g>
	<path class="st0" d="M43.58,31.42c-0.38-0.22-0.88-0.1-1.1,0.29l-9.2,15.7c-0.66,1.15-2.14,1.55-3.26,0.9l-1.79-1.16
		c-0.37-0.24-0.87-0.14-1.11,0.24c-0.24,0.37-0.13,0.87,0.24,1.11l1.83,1.18c0.63,0.36,1.32,0.54,2,0.54c1.39,0,2.74-0.72,3.48-2
		l9.2-15.69C44.09,32.14,43.96,31.64,43.58,31.42z"/>
	<path class="st1" d="M46,2.05H33.16c-2.48,0-4.34,0.79-6.19,2.64c-0.31,0.31-0.31,0.82,0,1.14c0.31,0.31,0.82,0.31,1.14,0
		c1.56-1.56,2.98-2.17,5.05-2.17H46c1.33,0,2.41,1.08,2.41,2.41v12.85c0,2.07-0.61,3.49-2.17,5.05L22.39,47.85
		c-0.91,0.91-2.5,0.91-3.41,0L4.22,33.08c-0.46-0.46-0.71-1.06-0.71-1.7c0-0.64,0.25-1.25,0.7-1.7L25.78,8.16
		c0.33,0.08,0.66,0.17,1.01,0.26c3.27,0.88,5.84,1.78,7.77,2.59c-0.38,0.7-0.59,1.48-0.59,2.29c0,2.66,2.16,4.82,4.82,4.82
		c2.66,0,4.82-2.16,4.82-4.82s-2.16-4.82-4.82-4.82c-0.44,0-0.8,0.36-0.8,0.8c0,0.44,0.36,0.8,0.8,0.8c1.77,0,3.21,1.44,3.21,3.21
		c0,1.77-1.44,3.21-3.21,3.21s-3.21-1.44-3.21-3.21c0-0.58,0.16-1.14,0.45-1.63c1.39,0.67,2.26,1.23,2.6,1.59
		c-0.15,0.04-0.37,0.09-0.72,0.12c-0.44,0.04-0.77,0.43-0.73,0.87c0.04,0.42,0.39,0.73,0.8,0.73c0.02,0,0.05,0,0.07,0
		c0.49-0.04,2-0.18,2.29-1.25c0.79-2.95-10.8-6.22-13.13-6.84c-3.57-0.96-6.99-1.61-9.64-1.84c-3.26-0.29-4.85,0.09-5.15,1.2
		c-0.14,0.54-0.52,1.96,5.99,4.52c0.41,0.16,0.88-0.04,1.04-0.45c0.16-0.41-0.04-0.88-0.45-1.04c-3.15-1.24-4.45-2.15-4.87-2.58
		c0.99-0.29,4.38-0.21,9.83,1.03L3.09,28.54c-0.76,0.76-1.18,1.77-1.18,2.84c0,1.07,0.42,2.08,1.18,2.84l14.76,14.76
		c0.76,0.76,1.77,1.18,2.84,1.18c1.07,0,2.08-0.42,2.84-1.18L47.38,25.1c1.85-1.85,2.64-3.7,2.64-6.19V6.07
		C50.02,3.85,48.22,2.05,46,2.05z"/>
</g>
<g>
	<path d="M59.84,22.46l2.52-3.14c1.29,1.06,3.02,1.62,4.48,1.62s2.07-0.48,2.07-1.29c0-0.87-0.92-1.15-2.46-1.76l-2.27-0.95
		c-1.96-0.78-3.67-2.44-3.67-5.07c0-3.11,2.8-5.66,6.78-5.66c2.18,0,4.4,0.78,6.05,2.3l-2.52,3.14c-1.23-0.84-2.46-1.29-3.53-1.29
		c-1.18,0-1.9,0.42-1.9,1.23c0,0.87,1.04,1.18,2.69,1.82l2.21,0.87c2.27,0.9,3.56,2.46,3.56,4.98c0,3.08-2.58,5.83-7.11,5.83
		C64.32,25.09,61.8,24.31,59.84,22.46z"/>
	<path d="M78.26,10.59h-4.82V6.55H87.9v4.03h-4.82v14.17h-4.82V10.59z"/>
	<path d="M91.32,6.55h5.83l5.55,18.21h-5.1l-0.9-3.87h-5.1l-0.9,3.87h-4.93L91.32,6.55z M92.46,17.17h3.36l-0.31-1.26
		c-0.45-1.74-0.9-3.95-1.34-5.77h-0.11c-0.39,1.85-0.84,4.03-1.29,5.77L92.46,17.17z"/>
	<path d="M103.02,6.55h4.93l4.03,8.12c0.62,1.23,1.18,2.69,1.74,4.09h0.11c-0.22-1.96-0.62-4.71-0.62-6.95V6.55h4.59v18.21h-4.93
		l-4.03-8.12c-0.62-1.23-1.18-2.69-1.74-4.09H107c0.22,2.07,0.62,4.71,0.62,6.95v5.27h-4.59V6.55z"/>
	<path d="M120.44,6.55h5.38c5.55,0,9.35,2.58,9.35,9.02s-3.81,9.19-9.07,9.19h-5.66V6.55z M125.54,20.89c2.63,0,4.71-1.06,4.71-5.32
		c0-4.26-2.07-5.15-4.71-5.15h-0.28v10.47H125.54z"/>
	<path d="M139.99,6.55h5.83l5.55,18.21h-5.1l-0.9-3.87h-5.1l-0.9,3.87h-4.93L139.99,6.55z M141.14,17.17h3.36l-0.31-1.26
		c-0.45-1.74-0.9-3.95-1.34-5.77h-0.11c-0.39,1.85-0.84,4.03-1.29,5.77L141.14,17.17z"/>
	<path d="M151.69,6.55h6.89c3.92,0,7.28,1.34,7.28,5.88c0,2.6-1.18,4.31-2.94,5.27l3.95,7.06h-5.38l-3.14-6.11h-1.85v6.11h-4.82
		V6.55z M158.25,14.84c1.9,0,2.91-0.84,2.91-2.41s-1.01-2.07-2.91-2.07h-1.74v4.48H158.25z"/>
	<path d="M167.94,6.55h5.38c5.55,0,9.35,2.58,9.35,9.02s-3.81,9.19-9.07,9.19h-5.66V6.55z M173.03,20.89c2.63,0,4.71-1.06,4.71-5.32
		c0-4.26-2.07-5.15-4.71-5.15h-0.28v10.47H173.03z"/>
</g>
</svg>
