<?xml version="1.0" encoding="utf-8"?>
<!-- Generator: Adobe Illustrator 27.8.1, SVG Export Plug-In . SVG Version: 6.00 Build 0)  -->
<svg version="1.1" id="Layer_1" xmlns="http://www.w3.org/2000/svg" xmlns:xlink="http://www.w3.org/1999/xlink" x="0px" y="0px"
	 viewBox="0 0 54 54" style="enable-background:new 0 0 54 54;" xml:space="preserve">
<style type="text/css">
	.st0{fill:#939598;}
	.st1{fill:#58595B;}
</style>
<g>
	<path class="st0" d="M43.59,31.98c-0.38-0.22-0.88-0.1-1.1,0.29l-9.2,15.7c-0.66,1.15-2.14,1.55-3.26,0.9l-1.79-1.16
		c-0.37-0.24-0.87-0.14-1.11,0.24c-0.24,0.37-0.13,0.87,0.24,1.11l1.83,1.18c0.63,0.36,1.32,0.54,2,0.54c1.39,0,2.74-0.72,3.48-2
		l9.2-15.69C44.1,32.7,43.97,32.21,43.59,31.98z"/>
	<path class="st1" d="M46.02,2.61H33.17c-2.48,0-4.34,0.79-6.19,2.64c-0.31,0.31-0.31,0.82,0,1.14c0.31,0.31,0.82,0.31,1.14,0
		c1.56-1.56,2.98-2.17,5.05-2.17h12.85c1.33,0,2.41,1.08,2.41,2.41v12.85c0,2.07-0.61,3.49-2.17,5.05L22.41,48.41
		c-0.91,0.91-2.5,0.91-3.41,0L4.24,33.65c-0.46-0.46-0.71-1.06-0.71-1.7c0-0.64,0.25-1.25,0.7-1.7L25.79,8.72
		c0.33,0.08,0.66,0.17,1.01,0.26c3.27,0.88,5.84,1.78,7.77,2.59c-0.38,0.7-0.59,1.48-0.59,2.29c0,2.66,2.16,4.82,4.82,4.82
		c2.66,0,4.82-2.16,4.82-4.82s-2.16-4.82-4.82-4.82c-0.44,0-0.8,0.36-0.8,0.8s0.36,0.8,0.8,0.8c1.77,0,3.21,1.44,3.21,3.21
		c0,1.77-1.44,3.21-3.21,3.21c-1.77,0-3.21-1.44-3.21-3.21c0-0.58,0.16-1.14,0.45-1.63c1.39,0.67,2.26,1.23,2.6,1.59
		c-0.15,0.04-0.37,0.09-0.72,0.12c-0.44,0.04-0.77,0.43-0.73,0.87c0.04,0.42,0.39,0.73,0.8,0.73c0.02,0,0.05,0,0.07,0
		c0.49-0.04,2-0.18,2.29-1.25c0.79-2.95-10.8-6.22-13.13-6.84c-3.57-0.96-6.99-1.61-9.64-1.84c-3.26-0.29-4.85,0.09-5.15,1.2
		c-0.14,0.54-0.52,1.96,5.99,4.52c0.41,0.16,0.88-0.04,1.04-0.45S19.41,9.98,19,9.82c-3.15-1.24-4.45-2.15-4.87-2.58
		c0.99-0.29,4.38-0.21,9.83,1.03L3.1,29.1c-0.76,0.76-1.18,1.77-1.18,2.84c0,1.07,0.42,2.08,1.18,2.84l14.76,14.76
		c0.76,0.76,1.77,1.18,2.84,1.18c1.07,0,2.08-0.42,2.84-1.18l23.85-23.88c1.85-1.85,2.64-3.7,2.64-6.19V6.63
		C50.04,4.41,48.23,2.61,46.02,2.61z"/>
</g>
</svg>
